<svg width="206" height="206" viewBox="0 0 206 206" fill="none" xmlns="http://www.w3.org/2000/svg">
<path d="M103 0L192.201 51.5V154.5L103 206L13.7994 154.5V51.5L103 0Z" fill="white"/>
<path d="M102.5 11L182.607 57.25V149.75L102.5 196L22.3926 149.75V57.25L102.5 11Z" fill="#F5832A"/>
<line x1="157.5" y1="93" x2="157.5" y2="63" stroke="black"/>
<path d="M73 152C73 146.477 77.4772 142 83 142H123C128.523 142 133 146.477 133 152V152H73V152Z" fill="black"/>
<rect x="100" y="62" width="6" height="80" fill="black"/>
<circle cx="103" cy="58" r="6" fill="black"/>
<path d="M108 63.5C124.398 54.0002 140 70 158 63.5M108 93C124.398 83.5002 140 99.5 158 93" stroke="black"/>
</svg>
