<svg width="85" height="140" viewBox="0 0 85 140" fill="none" xmlns="http://www.w3.org/2000/svg">
<path d="M0 49C0 44.5817 3.58172 41 8 41H77C81.4183 41 85 44.5817 85 49V97.5C85 120.972 65.9721 140 42.5 140C19.0279 140 0 120.972 0 97.5V49Z" fill="#F5832A"/>
<circle cx="42.5" cy="84.5" r="5.5" fill="black"/>
<path d="M41.0976 87H44.0244C44.0244 87 46.2195 105 44.0244 105C41.8293 105 40 105 40 105L41.0976 87Z" fill="black"/>
<path fill-rule="evenodd" clip-rule="evenodd" d="M74.9826 42.9302C74.9826 19.2205 60.6596 0 42.9913 0C25.323 0 11 19.2205 11 42.9302H19.003C19.2088 23.5869 29.8738 8 43 8C56.1262 8 66.7912 23.5869 66.997 42.9302H74.9826Z" fill="#F5832A"/>
</svg>
